<svg xmlns="http://www.w3.org/2000/svg" viewBox="0 0 273 45"><path fill="#2f0b48" fill-rule="evenodd" d="M35.8 7.39v24.75h-3.72a7.13 7.13 0 0 1-5.35-2.4 7.77 7.77 0 0 1-1.89-4.04h-2.76a7.3 7.3 0 0 1-7.33-7.32h-.02a7.37 7.37 0 0 1-7.34-7.33A7.33 7.33 0 0 1 .07 3.71V.04h28.4a7.32 7.32 0 0 1 7.32 7.33Zm-28.4 0h17.4v3.68H11.07a3.64 3.64 0 0 0 3.66 3.65h11.9v3.68H18.4c.02.96.4 1.89 1.09 2.58a3.6 3.6 0 0 0 2.58 1.07h6.6l-.23 2.04a4.2 4.2 0 0 0 1 3.21 3.57 3.57 0 0 0 2.68 1.17V7.39c0-.97-.4-1.91-1.08-2.6a3.63 3.63 0 0 0-2.59-1.07H3.74a3.65 3.65 0 0 0 3.65 3.67ZM65.87 44.9c-1.94 0-3.64-.36-5.12-1.1a7.9 7.9 0 0 1-3.34-3.17 10.03 10.03 0 0 1-1.17-4.97v-6.6a10 10 0 0 1 1.17-4.99 7.94 7.94 0 0 1 3.34-3.17c1.48-.73 3.18-1.1 5.12-1.1 2.78 0 5.02.75 6.72 2.25a8.1 8.1 0 0 1 2.68 6.11h-3.96a4.79 4.79 0 0 0-1.59-3.55 5.5 5.5 0 0 0-3.85-1.29c-1.74 0-3.12.5-4.14 1.5-1.03.97-1.54 2.36-1.54 4.2v6.64c0 1.82.51 3.23 1.54 4.23 1.02 1 2.4 1.5 4.14 1.5a5.5 5.5 0 0 0 3.85-1.29 4.87 4.87 0 0 0 1.59-3.56h3.96c-.09 2.59-.98 4.63-2.68 6.13-1.7 1.49-3.94 2.24-6.72 2.24Zm39.38 0c-1.9 0-3.57-.37-5.02-1.13a8.36 8.36 0 0 1-3.28-3.22 10.08 10.08 0 0 1-1.16-4.9v-6.6c0-1.88.39-3.5 1.16-4.88a8.2 8.2 0 0 1 3.28-3.22 10.52 10.52 0 0 1 5.02-1.15c1.9 0 3.56.38 4.97 1.15a7.9 7.9 0 0 1 3.3 3.22c.8 1.37 1.19 3 1.19 4.88v4.28H99.66v2.33c0 1.91.49 3.38 1.46 4.4.97 1 2.34 1.5 4.13 1.5 1.52 0 2.75-.27 3.69-.8a3.48 3.48 0 0 0 1.71-2.46h3.96a6.74 6.74 0 0 1-2.98 4.85 11 11 0 0 1-6.38 1.76Zm5.59-14.56v-1.29c0-1.9-.49-3.37-1.45-4.4-.95-1.03-2.32-1.54-4.14-1.54-1.79 0-3.16.51-4.13 1.53-.97 1.04-1.46 2.5-1.46 4.41v1.29Zm-4.08-14.29h-4.06l4.66-6.16h4.27Zm49.06 28.42h-7.7a7.8 7.8 0 0 1-3.68-.83 6.14 6.14 0 0 1-2.47-2.39 7.22 7.22 0 0 1-.87-3.6V15.91h-8.14V12.3h12.09v25.33c0 1 .27 1.8.83 2.38.56.56 1.3.84 2.24.84h7.7Zm28.57.44c-1.9 0-3.57-.38-5-1.14a8.36 8.36 0 0 1-3.3-3.22 10.21 10.21 0 0 1-1.14-4.9v-6.6c0-1.88.37-3.5 1.13-4.88a8.2 8.2 0 0 1 3.3-3.22c1.44-.77 3.1-1.15 5.01-1.15 1.91 0 3.57.38 4.97 1.15a7.9 7.9 0 0 1 3.3 3.22c.79 1.37 1.19 3 1.19 4.88v4.28h-15.03v2.33c0 1.91.48 3.38 1.44 4.4.97 1 2.34 1.5 4.13 1.5 1.52 0 2.76-.27 3.7-.8a3.53 3.53 0 0 0 1.71-2.46h3.95a6.74 6.74 0 0 1-2.98 4.85 10.97 10.97 0 0 1-6.38 1.76Zm5.59-14.57v-1.29c0-1.9-.49-3.37-1.46-4.4-.93-1.03-2.3-1.54-4.13-1.54-1.79 0-3.16.51-4.13 1.53-.96 1.04-1.44 2.5-1.44 4.41v1.29Zm29.54-5.84s.2-1.35 1.31-2.68c1.15-1.34 2.83-2.02 5.06-2.02 2.55 0 4.57.8 6.06 2.42 1.52 1.59 2.28 3.75 2.28 6.48v1.45h-3.94v-1.1c0-1.9-.47-3.35-1.41-4.35-.92-1.04-2.22-1.55-3.92-1.55-1.67 0-3 .51-3.96 1.55-.93 1.02-1.4 2.47-1.4 4.35v15.42h-3.96V20.24h3.87Zm44 20.42c-1.9 0-3.57-.38-5-1.15a8.2 8.2 0 0 1-3.3-3.22 10.19 10.19 0 0 1-1.15-4.88v-6.62c0-1.88.38-3.5 1.14-4.88a8.17 8.17 0 0 1 3.3-3.22c1.44-.77 3.1-1.15 5-1.15s3.56.38 4.97 1.15a7.9 7.9 0 0 1 3.3 3.22c.8 1.37 1.2 3 1.2 4.88v4.28h-15.05v2.34c0 1.9.48 3.37 1.45 4.4.97 1 2.35 1.5 4.14 1.5a7.5 7.5 0 0 0 3.7-.8 3.53 3.53 0 0 0 1.71-2.47h3.95a6.76 6.76 0 0 1-2.99 4.85 10.92 10.92 0 0 1-6.37 1.77Zm5.59-14.58v-1.29c0-1.9-.49-3.37-1.46-4.4-.93-1.03-2.31-1.54-4.13-1.54-1.79 0-3.17.51-4.14 1.53-.97 1.04-1.45 2.5-1.45 4.41v1.29Zm0 0"/></svg>